<?xml version="1.0" encoding="utf-8"?>
<!-- Generator: Adobe Illustrator 18.0.0, SVG Export Plug-In . SVG Version: 6.00 Build 0)  -->
<!DOCTYPE svg PUBLIC "-//W3C//DTD SVG 1.1//EN" "http://www.w3.org/Graphics/SVG/1.1/DTD/svg11.dtd">
<svg version="1.1" id="Layer_1" xmlns="http://www.w3.org/2000/svg" xmlns:xlink="http://www.w3.org/1999/xlink" x="0px" y="0px"
	 viewBox="0 0 216 22.3" enable-background="new 0 0 216 22.3" xml:space="preserve">
<g>
	<g>
		<g>
			<g>
				<path fill="#FFFFFF" d="M201.9,16.6h0.9l1.4,3.2h0l1.4-3.2h0.9v4.3h-0.6v-3.5h0l-1.4,3.5H204l-1.5-3.5h0v3.5h-0.6V16.6z"/>
				<path fill="#FFFFFF" d="M199.4,17.1H198v-0.5h3.3v0.5H200v3.8h-0.6V17.1z"/>
			</g>
			<polygon fill="#FFFFFF" points="166.1,0.6 176.4,0.6 181.2,6.2 186.3,0.6 196.4,0.6 187,10.5 197.8,21.2 187.4,21.2 181.2,15.5 
				175.2,21.2 164.7,21.2 175.4,10.3 			"/>
			<polygon id="XMLID_47_" fill="#FFFFFF" points="138,13.3 153.1,13.3 153.1,8.6 138,8.6 138,5.2 154.4,5.2 154.4,0.6 129.2,0.6 
				129.2,21.2 154.5,21.2 154.6,16.5 138,16.5 			"/>
			<path id="XMLID_46_" fill="#FFFFFF" d="M106,5.1c0,2.7,0,4.3,0.1,6.4c-1.9-1.8-2.3-2.3-4.7-4.2l-8.1-6.7h-7.2v20.7h8.8V17
				c0-2.5,0-3.4-0.1-6.7c1.2,1.1,1.6,1.5,3,2.7l9.7,8.2h7.3V0.6H106V5.1z"/>
			<path id="XMLID_45_" fill="#FFFFFF" d="M61.5,6.4c-0.8,1.3-1,1.6-1.6,2.8c-0.6-1.1-0.7-1.3-1.4-2.4l-4.4-6.2H43.8l11.6,14.5v6.1
				h9v-6.1L75.9,0.6H65.7L61.5,6.4z"/>
			<path fill="#FFFFFF" d="M25.3,15.2c-1,0.8-2.8,1.2-5.9,1.2h-4V5.4l4.2,0c1.7,0,3.8,0.2,5.4,1.2c1.3,0.8,2.3,2.3,2.3,4.3
				C27.3,12.6,26.5,14.3,25.3,15.2z M20.9,0.6H6.5v20.7h16.1c2.4,0,4.9-0.1,7.7-1.3c2.9-1.2,4.1-2.9,4.7-4.1
				c0.8-1.5,1.1-3.1,1.1-4.7c0-3.1-1.2-4.9-1.8-5.7C30.9,0.4,23.5,0.6,20.9,0.6z"/>
		</g>
	</g>
	<g>
		<g>
			<g>
				<path fill="#FFFFFF" d="M201.9,16.6h0.9l1.4,3.2h0l1.4-3.2h0.9v4.3h-0.6v-3.5h0l-1.4,3.5H204l-1.5-3.5h0v3.5h-0.6V16.6z"/>
				<path fill="#FFFFFF" d="M199.4,17.1H198v-0.5h3.3v0.5H200v3.8h-0.6V17.1z"/>
			</g>
			<polygon fill="#FFFFFF" points="166.1,0.6 176.4,0.6 181.2,6.2 186.3,0.6 196.4,0.6 187,10.5 197.8,21.2 187.4,21.2 181.2,15.5 
				175.2,21.2 164.7,21.2 175.4,10.3 			"/>
			<polygon id="XMLID_40_" fill="#FFFFFF" points="138,13.3 153.1,13.3 153.1,8.6 138,8.6 138,5.2 154.4,5.2 154.4,0.6 129.2,0.6 
				129.2,21.2 154.5,21.2 154.6,16.5 138,16.5 			"/>
			<path id="XMLID_39_" fill="#FFFFFF" d="M106,5.1c0,2.7,0,4.3,0.1,6.4c-1.9-1.8-2.3-2.3-4.7-4.2l-8.1-6.7h-7.2v20.7h8.8V17
				c0-2.5,0-3.4-0.1-6.7c1.2,1.1,1.6,1.5,3,2.7l9.7,8.2h7.3V0.6H106V5.1z"/>
			<path id="XMLID_38_" fill="#FFFFFF" d="M61.5,6.4c-0.8,1.3-1,1.6-1.6,2.8c-0.6-1.1-0.7-1.3-1.4-2.4l-4.4-6.2H43.8l11.6,14.5v6.1
				h9v-6.1L75.9,0.6H65.7L61.5,6.4z"/>
			<path fill="#FFFFFF" d="M25.3,15.2c-1,0.8-2.8,1.2-5.9,1.2h-4V5.4l4.2,0c1.7,0,3.8,0.2,5.4,1.2c1.3,0.8,2.3,2.3,2.3,4.3
				C27.3,12.6,26.5,14.3,25.3,15.2z M20.9,0.6H6.5v20.7h16.1c2.4,0,4.9-0.1,7.7-1.3c2.9-1.2,4.1-2.9,4.7-4.1
				c0.8-1.5,1.1-3.1,1.1-4.7c0-3.1-1.2-4.9-1.8-5.7C30.9,0.4,23.5,0.6,20.9,0.6z"/>
		</g>
	</g>
</g>
</svg>
