<svg width="301" height="54" viewBox="0 0 301 54" fill="none" xmlns="http://www.w3.org/2000/svg">
<g clip-path="url(#clip0_1_4)">
<path d="M241.105 35.282H240.88L231.308 1.98535H215.867V43.9619H226.095L225.519 9.51495H225.744L236.023 43.9619H250.838V1.98329H240.541L241.105 35.282ZM44.6561 1.98329L36.953 44.4039H48.1937L53.8894 5.89884H54.1269L59.6719 44.4059H70.8465L63.1785 1.98329H44.6561ZM107.532 1.98742L102.394 34.4209H102.161L97.0473 1.98742H80.0778L79.1567 44.4039H89.561L89.8212 6.25818H90.0567L97.006 44.4039H107.559L114.51 6.27057L114.742 6.25818L115.012 44.4039H125.421L124.502 1.98742H107.532ZM11.1756 12.8956C10.9794 12.0283 11.0269 11.1609 11.1322 10.6818C11.4317 9.31876 12.3321 7.82564 14.9362 7.82564C17.3773 7.82564 18.7981 9.36626 18.7981 11.6669V14.2875H29.188V11.3261C29.188 2.07209 21.0471 0.628538 15.1531 0.628538C7.75773 0.628538 1.71919 3.13358 0.606062 10.054C0.302483 11.9126 0.26531 13.6164 0.707256 15.7641C2.51428 24.4337 17.2947 26.945 19.4404 32.428C19.8431 33.4502 19.713 34.7761 19.5147 35.5773C19.1781 36.9651 18.2426 38.4087 15.4649 38.4087C12.867 38.4087 11.2809 36.8908 11.2809 34.5757L11.2747 30.4599H0.118683L0.112488 33.7393C0.112488 43.2019 7.41492 46.0457 15.2357 46.0457C22.7736 46.0457 28.9525 43.4477 29.9521 36.3662C30.4601 32.6944 30.0863 30.2864 29.9066 29.388C28.1451 20.5016 12.3631 17.8747 11.1756 12.8956ZM146.547 12.9948C146.343 12.148 146.401 11.2889 146.498 10.8201C146.789 9.46538 147.681 7.98879 150.262 7.98879C152.675 7.98879 154.091 9.50669 154.091 11.7763V14.3784H164.37V11.4438C164.37 2.30339 156.303 0.863967 150.485 0.863967C143.154 0.863967 137.167 3.31325 136.079 10.1903C135.775 12.0406 135.728 13.732 136.174 15.8488C137.964 24.4275 152.598 26.9202 154.727 32.3433C155.116 33.3656 154.998 34.6687 154.808 35.4638C154.469 36.8619 153.534 38.2621 150.795 38.2621C148.21 38.2621 146.653 36.7669 146.653 34.4766L146.644 30.3917H135.587V33.6423C135.587 43.0078 142.826 45.8185 150.57 45.8185C158.015 45.8185 164.142 43.2432 165.123 36.2361C165.627 32.6118 165.256 30.2244 165.08 29.3302C163.335 20.5388 147.704 17.9264 146.547 12.9948ZM193.734 33.3552C193.742 33.8942 193.726 34.5179 193.637 34.9723C193.431 36.0276 192.541 38.0246 189.647 38.0246C186.764 38.0246 185.864 36.0276 185.657 34.9723C185.569 34.5179 185.548 33.8942 185.552 33.3552V1.97916H175.036V32.3825C175.02 33.1694 175.096 34.7616 175.133 35.185C175.848 43.0925 181.994 45.6471 189.645 45.6471C197.288 45.6471 203.432 43.0925 204.169 35.185C204.207 34.7616 204.287 33.1673 204.275 32.3825V1.97916H193.732V33.3552H193.734ZM276.527 20.5553V26.7673H280.787V32.9195C280.8 33.4544 280.779 34.045 280.69 34.5303C280.504 35.6723 279.443 37.5991 276.442 37.5991C273.433 37.5991 272.376 35.6703 272.182 34.5303C272.101 34.045 272.076 33.4544 272.089 32.9195V13.511C272.089 12.8213 272.132 12.0675 272.258 11.5202C272.479 10.4753 273.375 8.44106 276.401 8.44106C279.583 8.44106 280.37 10.5888 280.56 11.5202C280.682 12.1088 280.69 13.1228 280.69 13.1187V15.5081H291.177V14.0914C291.173 14.0914 291.214 12.6416 291.092 11.3178C290.322 3.3401 283.856 0.828859 276.487 0.828859C269.115 0.828859 262.802 3.36075 261.887 11.3178C261.798 12.0035 261.705 13.3376 261.705 14.0914L261.701 31.9385C261.705 32.7377 261.73 33.3284 261.845 34.741C262.531 42.4647 269.115 45.232 276.479 45.232C283.848 45.232 290.431 42.4647 291.121 34.741C291.235 33.3263 291.251 32.7357 291.253 31.9385V20.5553H276.527Z" fill="#1428A0"/>
</g>
<defs>
<clipPath id="clip0_1_4">
<rect width="300" height="52.9412" fill="white" transform="translate(0.16584 0.501822)"/>
</clipPath>
</defs>
</svg>
