<svg width="89" height="41" viewBox="0 0 89 41" fill="none" xmlns="http://www.w3.org/2000/svg">
<g clip-path="url(#clip0_1089_12801)">
<path d="M44.3933 40.0193V40.8233H40.6458V34.5469H41.6464V40.0193H44.3933Z" fill="white"/>
<path d="M45.0286 36.4566H46.0093V40.8234H45.0286V36.4566ZM45.0193 34.6094H46.0093V35.4865H45.0193V34.6094Z" fill="white"/>
<path d="M49.8698 36.4567V37.1995H48.3628V40.8234H47.3834V37.1995H46.7429V36.4567H47.3728V35.9251C47.3728 34.6135 48.0971 34.2121 49.1004 34.2121C49.4415 34.2059 49.7809 34.2613 50.1024 34.3756L49.8871 35.0786C49.6697 34.9965 49.4391 34.9546 49.2067 34.955C48.5861 34.955 48.3469 35.2447 48.3469 35.9251V36.4567H49.8698Z" fill="white"/>
<path d="M51.192 38.2027H53.0923C53.0923 37.3761 52.8013 37.0252 52.2471 37.0252C51.491 37.0252 51.2239 37.4239 51.192 38.2027ZM50.17 38.6146C50.17 37.097 50.8624 36.3555 52.2564 36.3555C53.7846 36.3555 54.1049 37.2644 54.1049 38.4937V38.8831H51.1813C51.2013 39.8133 51.5627 40.212 52.4305 40.212C53.0803 40.212 53.4936 40.0047 53.8338 39.8611L54.0411 40.4897C53.4949 40.773 52.8903 40.9249 52.275 40.9336C50.7162 40.9336 50.1687 40.1694 50.1687 38.6213" fill="white"/>
<path d="M54.2126 36.3329C54.6259 35.6299 54.6977 35.0213 54.6977 34.2798H55.6173C55.6067 35.3921 55.3515 36.0432 54.8319 36.725L54.2126 36.3329Z" fill="white"/>
<path d="M58.2804 38.4181C58.812 38.6055 59.2518 38.8832 59.2518 39.5968C59.2518 40.4939 58.5502 40.9257 57.3728 40.9257C56.8071 40.9344 56.2455 40.8295 55.7209 40.6174L56.0213 39.9038C56.4467 40.1045 56.9118 40.2071 57.3821 40.2042C57.9003 40.2042 58.3004 40.1005 58.3004 39.6872C58.3004 39.44 58.1156 39.2752 57.7435 39.1397C57.4033 39.0267 57.0126 38.9125 56.7123 38.7982C56.1808 38.6041 55.7821 38.3131 55.7821 37.654C55.7821 36.7237 56.6073 36.353 57.6093 36.353C58.1571 36.3477 58.7008 36.4479 59.2107 36.648L58.909 37.3603C58.5035 37.1644 58.0582 37.0653 57.608 37.0706C56.9887 37.0706 56.7216 37.2673 56.7216 37.5556C56.7216 37.7922 56.8864 37.9277 57.2532 38.0713C57.4791 38.1643 57.9655 38.3105 58.2751 38.4221" fill="white"/>
<path d="M67.4711 40.5018C66.7608 40.7952 65.9976 40.939 65.2293 40.9244C63.2053 40.9138 62.3057 39.7882 62.3057 37.6832C62.3057 35.4839 63.4525 34.4407 65.3223 34.4407C66.2087 34.4407 66.9941 34.7197 67.4778 35.3085L66.8691 35.856C66.6729 35.6471 66.4339 35.4828 66.1687 35.3741C65.9034 35.2655 65.618 35.215 65.3316 35.2261C63.9774 35.2261 63.3289 36.135 63.3289 37.7762C63.3289 39.2938 63.9774 40.1204 65.2798 40.1204C65.6911 40.122 66.1006 40.0698 66.4984 39.9649V38.2825H65.0578V37.5104H67.4765L67.4711 40.5018Z" fill="white"/>
<path d="M44.3933 40.0193V40.8233H40.6458V34.5469H41.6464V40.0193H44.3933Z" fill="white"/>
<path d="M71.4498 38.5841C71.4498 37.7376 71.2651 37.0453 70.4279 37.0453C69.4976 37.0453 69.2093 37.6233 69.2093 38.6984C69.2093 39.5529 69.4059 40.236 70.2219 40.236C71.1707 40.236 71.4498 39.6672 71.4498 38.5841ZM68.2073 38.6253C68.2073 37.1077 68.9103 36.3542 70.4279 36.3542C71.9774 36.3542 72.4518 37.2313 72.4518 38.6652C72.4518 40.1841 71.7488 40.9243 70.2219 40.9243C68.6737 40.9243 68.2073 40.0566 68.2073 38.6227" fill="white"/>
<path d="M76.3031 38.5841C76.3031 37.7376 76.117 37.0453 75.2798 37.0453C74.3496 37.0453 74.0639 37.6233 74.0639 38.6984C74.0639 39.5529 74.2605 40.236 75.0752 40.236C76.024 40.236 76.3031 39.6672 76.3031 38.5841ZM73.0605 38.6253C73.0605 37.1077 73.7635 36.3542 75.2798 36.3542C76.8293 36.3542 77.3037 37.2313 77.3037 38.6652C77.3037 40.1841 76.6034 40.9243 75.0752 40.9243C73.5257 40.9243 73.0605 40.0566 73.0605 38.6227" fill="white"/>
<path d="M80.8998 39.8943V37.2631C80.6823 37.1318 80.4323 37.0638 80.1782 37.0664C79.4247 37.0664 78.9397 37.489 78.9397 38.6877C78.9397 39.5967 79.2493 40.2159 80.0546 40.2159C80.367 40.2202 80.6692 40.1051 80.8998 39.8943ZM77.9297 38.7382C77.9297 37.3442 78.5051 36.3542 80.024 36.3542C80.3265 36.3451 80.6267 36.4084 80.8998 36.5389V34.3395L81.8818 34.2173V39.6777L81.9656 40.8233H81.1177L81.0353 40.5349C80.6611 40.8069 80.2073 40.9471 79.745 40.9336C78.4958 40.9336 77.9297 40.1083 77.9297 38.7448" fill="white"/>
<path d="M45.6053 6.78076H40.6445V28.2545H55.883V24.0725H45.6053V6.78076Z" fill="white"/>
<path d="M66.7973 20.0699H70.8358V23.824C70.0916 24.1084 68.6405 24.3928 67.2584 24.3928C62.7919 24.3928 61.3036 22.123 61.3036 17.5171C61.3036 13.1237 62.7202 10.5363 67.1853 10.5363C69.6677 10.5363 71.083 11.3164 72.2524 12.8048L75.3368 9.96889C73.4577 7.27786 70.162 6.46191 67.079 6.46191C60.1341 6.46191 56.4836 10.2533 56.4836 17.4812C56.4836 24.6759 59.7793 28.5735 67.0444 28.5735C70.3747 28.5735 73.6358 27.723 75.4072 26.4832V16.0646H66.7973V20.0699Z" fill="white"/>
<path d="M16.6268 1C7.45019 1 0 8.52551 0 17.8133C0 27.1012 7.45019 34.6267 16.6268 34.6267C25.7835 34.6267 33.2044 27.1725 33.2749 17.9438V17.6815C33.2044 8.45556 25.7835 1 16.6268 1Z" fill="url(#paint0_radial_1089_12801)"/>
<path d="M5.37224 6.43221C-0.18778 12.0515 -0.749505 20.6142 4.13165 25.5487C9.0128 30.4805 17.4786 29.9155 23.04 24.2922C28.6093 18.6608 29.171 10.1008 24.2925 5.1663C22.0643 2.9143 19.0879 1.80713 15.9758 1.80713C12.2807 1.80713 8.3965 3.37438 5.37224 6.43221Z" fill="url(#paint1_linear_1089_12801)"/>
<path d="M15.7747 25.3483L16.1861 25.1115L16.1847 10.9066L16.0822 10.7412L16.1847 10.7102V10.6887H16.2566L17.4999 10.2582L17.7235 10.647C17.7235 10.647 17.7568 10.6806 17.7541 10.7546L17.7421 23.6895H20.765L21.0073 24.0729C21.0299 24.1012 21.0446 24.1335 21.0446 24.2303V25.5312C21.0446 25.6039 21.002 25.6348 20.9514 25.6429H16.3245C16.214 25.6469 16.1182 25.5931 16.0929 25.5743L15.7747 25.3483ZM30.7843 17.0398L20.4935 17.0438V18.7093L20.7491 19.055C20.7491 19.055 20.7797 19.0887 20.8369 19.0887H28.6811H29.4372H29.4398H29.4492C29.0046 25.6698 23.5124 30.8209 16.9501 30.8209C13.6064 30.8209 10.4623 29.5079 8.09161 27.1334C5.73024 24.7563 4.43108 21.6003 4.43108 18.2384C4.43108 14.8752 5.66235 11.6506 8.02373 9.27751C10.3997 6.90846 13.3894 5.65735 16.9687 5.57932L17.6449 5.56856H17.7208C17.7674 5.56318 17.8087 5.56183 17.8087 5.4569V4.09548C17.8087 3.99593 17.7754 3.94884 17.7754 3.9475L17.4719 3.56274L16.7864 3.6623L16.4403 3.77799C8.62539 3.77799 2.76587 10.3793 2.76587 18.2411C2.76587 22.0442 4.24472 25.6254 6.92157 28.3173C9.59576 31.0105 13.1418 32.3733 16.9261 32.3733C20.7278 32.3733 24.2978 30.9245 26.9707 28.2312C29.6515 25.5393 31.1264 21.9595 31.1264 18.1564V17.3358L30.7843 17.0398ZM11.5325 10.456C10.2959 10.456 9.29493 11.4636 9.29493 12.7026C9.29493 13.9403 10.2959 14.9438 11.5325 14.9438C12.7678 14.9438 13.7688 13.9403 13.7688 12.7026C13.7688 11.4636 12.7678 10.456 11.5325 10.456Z" fill="url(#paint2_linear_1089_12801)"/>
<path d="M16.113 25.0214L15.7749 25.3483H20.7652L20.4391 25.012L16.113 25.0214Z" fill="#616D76"/>
<path d="M20.4391 24.0085L20.7652 23.6897H17.4987L17.1113 24.0085H20.4391Z" fill="#879AA4"/>
<path d="M17.4987 10.2583H15.7749L16.0984 10.5704L17.13 10.5691L17.4987 10.2583Z" fill="#8E9BA1"/>
<path d="M17.1394 23.9829L17.4988 23.6896V10.2583L17.1301 10.5691L17.1394 23.9829Z" fill="url(#paint3_linear_1089_12801)"/>
<path d="M20.439 24.0085V25.0121L20.7651 25.3484V23.6897L20.439 24.0085Z" fill="url(#paint4_linear_1089_12801)"/>
<path d="M15.7749 10.2583V25.3483L16.113 25.0214L16.0984 10.5704L15.7749 10.2583Z" fill="#B5BEC4"/>
<path d="M9.14868 12.4455C9.14868 13.6536 10.1217 14.6329 11.321 14.6329C12.5217 14.6329 13.4921 13.6536 13.4921 12.4455C13.4921 11.2361 12.5217 10.2527 11.321 10.2527C10.123 10.2513 9.14868 11.2361 9.14868 12.4455ZM13.1699 12.4455C13.1699 13.472 12.3393 14.3033 11.3224 14.3033C10.3014 14.3033 9.47081 13.472 9.47081 12.4455C9.47081 11.415 10.3014 10.5809 11.3224 10.5809C12.3393 10.5809 13.1699 11.415 13.1699 12.4455Z" fill="url(#paint5_linear_1089_12801)"/>
<path d="M29.3788 18.3272L20.7545 18.3164L20.4351 18.6568H29.0473L29.219 18.4765L29.3788 18.3272Z" fill="#505C61"/>
<path d="M20.7545 17.3343L30.3997 17.3181L30.7258 16.9858L20.4351 16.9885L20.7545 17.3343Z" fill="#8F9DA5"/>
<path d="M30.7258 17.8093V16.986L30.3997 17.3183V17.8093C30.3997 21.5277 28.9701 25.0227 26.3705 27.6541C23.7735 30.2855 20.3086 31.7343 16.6201 31.7343C12.9476 31.7343 9.48941 30.2855 6.8911 27.6541C4.29013 25.02 2.85786 21.525 2.85786 17.8093C2.85786 10.1291 9.03151 3.88563 16.6188 3.88563L17.1446 3.8789L17.4667 3.56276L16.6188 3.55469C8.85448 3.55469 2.53174 9.94882 2.53174 17.8093C2.53174 21.6124 3.99861 25.1936 6.65949 27.8855C9.3177 30.576 12.8558 32.0626 16.6175 32.0626C20.3925 32.0626 23.9385 30.5774 26.5954 27.8855C29.2629 25.1922 30.7258 21.6124 30.7258 17.8093Z" fill="url(#paint6_linear_1089_12801)"/>
<path d="M17.1447 4.91212L16.7813 4.90405H16.4392C13.1061 4.95248 9.97535 6.29104 7.59534 8.68026C5.19004 11.1166 3.86426 14.3587 3.86426 17.8093C3.86426 21.2587 5.19004 24.4967 7.59534 26.9344C9.97669 29.3344 13.1194 30.677 16.4632 30.7173H16.7919C23.4128 30.6326 28.9223 25.3752 29.3695 18.6824L29.3815 18.3259L29.2191 18.4766L29.0474 18.6569C28.6055 25.238 23.1493 30.3891 16.6295 30.3891C13.3071 30.3891 10.183 29.0761 7.82828 26.7017C5.48155 24.3259 4.19171 21.1685 4.19171 17.808C4.19171 14.4448 5.48155 11.2834 7.82828 8.9103C10.1883 6.54126 13.3111 5.2323 16.6295 5.2323L17.4681 5.24037L17.1447 4.91212Z" fill="url(#paint7_linear_1089_12801)"/>
<path d="M20.7545 17.3343L20.4351 16.9885V18.6567L20.7545 18.3163V17.3343Z" fill="#B5BEC4"/>
<path d="M17.146 4.91475L17.4681 5.24031V3.56274L17.146 3.87754V4.91475Z" fill="url(#paint8_linear_1089_12801)"/>
<path d="M15.9574 10.4358V25.1707H20.5936V23.8577H17.2858V10.4358H15.9574ZM16.4419 3.73364C8.85994 3.82512 2.70093 10.1036 2.70093 17.8093C2.70093 21.5707 4.1505 25.1008 6.7781 27.759C9.40303 30.4187 12.9065 31.8823 16.6123 31.8823C20.342 31.8823 23.8415 30.4187 26.4678 27.759C29.098 25.0994 30.5423 21.5694 30.5423 17.8093V17.169L29.9925 17.1717H20.6056V18.4779H29.2205C29.2192 18.5089 29.2192 18.6434 29.2165 18.669C28.7693 25.3012 23.2984 30.5693 16.6216 30.5693C13.2552 30.5693 10.0872 29.2402 7.69523 26.8294C5.31788 24.4227 4.00541 21.2196 4.00541 17.8093C4.00541 14.3963 5.31921 11.1905 7.69523 8.78652C10.0872 6.38385 13.2552 5.05471 16.6216 5.05471C16.7667 5.05471 17.1274 5.05471 17.2872 5.05875V3.74037C17.1554 3.74037 16.9384 3.73633 16.7667 3.73364H16.4419V3.73364Z" fill="url(#paint9_radial_1089_12801)"/>
<path d="M9.31372 12.4457C9.31372 13.5569 10.2149 14.4555 11.313 14.4555C12.4112 14.4555 13.3097 13.5569 13.3097 12.4457C13.3097 11.325 12.4112 10.4277 11.313 10.4277C10.2149 10.4277 9.31372 11.325 9.31372 12.4457Z" fill="url(#paint10_radial_1089_12801)"/>
<path d="M11.6724 10.7896C12.1303 10.7896 12.5483 10.9551 12.8851 11.2188C12.5217 10.7398 11.952 10.4277 11.3144 10.4277C10.2135 10.4277 9.31372 11.325 9.31372 12.4457C9.31372 13.0887 9.62254 13.6551 10.0898 14.0223C9.83285 13.6847 9.67179 13.269 9.67179 12.8075C9.67179 11.691 10.5716 10.7896 11.6724 10.7896Z" fill="white"/>
<path d="M17.2844 3.74037C17.11 3.73768 16.7799 3.73096 16.6122 3.73096C8.94902 3.73096 2.70215 10.0484 2.70215 17.8093C2.70215 21.5734 4.15172 25.1008 6.77666 27.7604C6.86052 27.8452 6.94837 27.9259 7.03356 28.0093C4.55504 25.3779 3.18933 21.9542 3.18933 18.3017C3.18933 10.5583 8.61491 4.12916 17.2844 3.74037Z" fill="white"/>
<path d="M17.2844 23.8577C17.2844 23.8577 18.2402 24.1375 20.5896 24.1375V23.8577H17.2844Z" fill="white"/>
<path d="M17.2844 10.85V10.4343H15.9573V25.1706C15.9573 25.1706 16.3726 22.9293 16.3726 10.85H17.2844V10.85Z" fill="white"/>
<path d="M30.5409 17.1675L20.6042 17.1702V18.4764H20.965V17.5334C29.6238 17.5334 30.5409 17.1675 30.5409 17.1675Z" fill="white"/>
<path d="M29.2203 18.4766C29.2177 18.5048 29.2177 18.6461 29.2124 18.6716C28.7704 25.2998 23.2969 30.5693 16.6201 30.5693C13.2538 30.5693 10.0844 29.2402 7.69375 26.8281C6.13635 25.2554 5.03819 23.3384 4.46582 21.2492C5.95932 26.7433 10.931 30.7227 16.8384 30.7227C23.1798 30.7227 29.022 25.7034 29.3854 18.4779H29.2203V18.4766Z" fill="white"/>
</g>
<defs>
<radialGradient id="paint0_radial_1089_12801" cx="0" cy="0" r="1" gradientUnits="userSpaceOnUse" gradientTransform="translate(16.0196 17.3) scale(17.344 17.5287)">
<stop stop-color="#C00C3F"/>
<stop offset="0.5" stop-color="#C00C3F"/>
<stop offset="0.7363" stop-color="#BF0C3E"/>
<stop offset="0.8358" stop-color="#B90A3B"/>
<stop offset="0.9094" stop-color="#B00737"/>
<stop offset="0.9701" stop-color="#A30330"/>
<stop offset="1" stop-color="#9A002B"/>
</radialGradient>
<linearGradient id="paint1_linear_1089_12801" x1="9.82261" y1="3.17231" x2="18.7656" y2="27.4839" gradientUnits="userSpaceOnUse">
<stop stop-color="#F48996"/>
<stop offset="0.0112" stop-color="#F28693"/>
<stop offset="0.263" stop-color="#DB5A69"/>
<stop offset="0.4875" stop-color="#CC3750"/>
<stop offset="0.6746" stop-color="#C31B43"/>
<stop offset="0.8011" stop-color="#C00C3F"/>
<stop offset="1" stop-color="#C00C3F"/>
</linearGradient>
<linearGradient id="paint2_linear_1089_12801" x1="5.53458" y1="9.19597" x2="25.8805" y2="29.3275" gradientUnits="userSpaceOnUse">
<stop stop-color="#CE425C"/>
<stop offset="0.0902" stop-color="#BD3551"/>
<stop offset="0.2501" stop-color="#A82242"/>
<stop offset="0.431" stop-color="#9B1438"/>
<stop offset="0.6483" stop-color="#930933"/>
<stop offset="1" stop-color="#910531"/>
</linearGradient>
<linearGradient id="paint3_linear_1089_12801" x1="17.1295" y1="17.1209" x2="17.4988" y2="17.1209" gradientUnits="userSpaceOnUse">
<stop stop-color="#B5BEC4"/>
<stop offset="0.1753" stop-color="#99A2A9"/>
<stop offset="0.569" stop-color="#646C74"/>
<stop offset="0.8544" stop-color="#424950"/>
<stop offset="1" stop-color="#333940"/>
</linearGradient>
<linearGradient id="paint4_linear_1089_12801" x1="20.4395" y1="24.5188" x2="20.7646" y2="24.5188" gradientUnits="userSpaceOnUse">
<stop stop-color="#B4BCC2"/>
<stop offset="0.1351" stop-color="#989FA4"/>
<stop offset="0.548" stop-color="#585D61"/>
<stop offset="0.8473" stop-color="#373E41"/>
<stop offset="1" stop-color="#2B3337"/>
</linearGradient>
<linearGradient id="paint5_linear_1089_12801" x1="9.78208" y1="10.8871" x2="12.8822" y2="13.9546" gradientUnits="userSpaceOnUse">
<stop stop-color="#ABBAC3"/>
<stop offset="1" stop-color="#202428"/>
</linearGradient>
<linearGradient id="paint6_linear_1089_12801" x1="5.38154" y1="8.9696" x2="25.6975" y2="29.0714" gradientUnits="userSpaceOnUse">
<stop stop-color="#B5BEC4"/>
<stop offset="1" stop-color="#3E454D"/>
</linearGradient>
<linearGradient id="paint7_linear_1089_12801" x1="29.3815" y1="17.811" x2="3.86423" y2="17.811" gradientUnits="userSpaceOnUse">
<stop stop-color="#B5BEC4"/>
<stop offset="1" stop-color="#485059"/>
</linearGradient>
<linearGradient id="paint8_linear_1089_12801" x1="17.1462" y1="4.40149" x2="17.4682" y2="4.40149" gradientUnits="userSpaceOnUse">
<stop stop-color="#B4BCC2"/>
<stop offset="0.1351" stop-color="#989FA4"/>
<stop offset="0.548" stop-color="#585D61"/>
<stop offset="0.8473" stop-color="#373E41"/>
<stop offset="1" stop-color="#2B3337"/>
</linearGradient>
<radialGradient id="paint9_radial_1089_12801" cx="0" cy="0" r="1" gradientUnits="userSpaceOnUse" gradientTransform="translate(11.01 11.8487) scale(21.2923 21.5191)">
<stop stop-color="white"/>
<stop offset="0.35" stop-color="white"/>
<stop offset="0.5295" stop-color="#F6F8F9"/>
<stop offset="0.7147" stop-color="#E6EBEF"/>
<stop offset="0.902" stop-color="#CFD9DE"/>
<stop offset="1" stop-color="#C0CCD3"/>
</radialGradient>
<radialGradient id="paint10_radial_1089_12801" cx="0" cy="0" r="1" gradientUnits="userSpaceOnUse" gradientTransform="translate(10.486 11.701) scale(3.10909 3.14221)">
<stop stop-color="white"/>
<stop offset="0.35" stop-color="white"/>
<stop offset="0.5653" stop-color="#F6F8F9"/>
<stop offset="0.7879" stop-color="#E6EBEF"/>
<stop offset="1" stop-color="#D0DADF"/>
</radialGradient>
<clipPath id="clip0_1089_12801">
<rect width="81.9933" height="40" fill="white" transform="translate(0 1)"/>
</clipPath>
</defs>
</svg>
