<svg id="logo" xmlns="http://www.w3.org/2000/svg" viewBox="0 0 136 24"><path id="svg_1" data-name="svg 1" d="M109.23,15.77h-.11L104.78.67h-7v19h4.64l-.26-15.61h.1l4.66,15.61h6.72V.67H109ZM20.17.67,16.68,19.9h5.09L24.35,2.45h.11L27,19.9H32L28.57.67Zm28.5,0L46.34,15.38h-.1L43.92.67H36.23L35.81,19.9h4.72l.11-17.29h.11L43.9,19.9h4.78L51.84,2.62h.1l.12,17.29h4.72L56.37.67ZM5,5.62a2.48,2.48,0,0,1,0-1A1.58,1.58,0,0,1,6.7,3.32,1.63,1.63,0,0,1,8.45,5.06V6.25h4.71V4.91C13.16.71,9.47.06,6.79.06,3.44.06.7,1.19.2,4.33a6.68,6.68,0,0,0,0,2.59c.81,3.93,7.52,5.07,8.49,7.55a2.59,2.59,0,0,1,0,1.43,1.63,1.63,0,0,1-1.83,1.28A1.69,1.69,0,0,1,5,15.45V13.58H0v1.49c0,4.29,3.31,5.58,6.85,5.58s6.22-1.18,6.67-4.39a9.59,9.59,0,0,0,0-3.16C12.68,9.07,5.53,7.88,5,5.62Zm61.37,0a2.33,2.33,0,0,1,0-1A1.54,1.54,0,0,1,68,3.39a1.61,1.61,0,0,1,1.74,1.72V6.29h4.66V5c0-4.14-3.66-4.8-6.3-4.8-3.32,0-6,1.11-6.53,4.23a6.58,6.58,0,0,0,0,2.57c.81,3.89,7.44,5,8.41,7.47a2.65,2.65,0,0,1,0,1.42,1.61,1.61,0,0,1-1.81,1.27,1.67,1.67,0,0,1-1.88-1.72V13.55h-5V15c0,4.25,3.28,5.52,6.79,5.52s6.16-1.16,6.6-4.34a9.44,9.44,0,0,0,0-3.13C74,9.08,66.88,7.9,66.36,5.66Zm21.39,9.23a4.35,4.35,0,0,1,0,.74,1.88,1.88,0,0,1-3.62,0,4.31,4.31,0,0,1,0-.74V.67H79.27V14.45c0,.36,0,1.08,0,1.27.32,3.59,3.11,4.75,6.58,4.75s6.25-1.16,6.58-4.75c0-.19.06-.91,0-1.27V.67H87.75V14.89Zm37.53-5.8v2.82h1.93V14.7a3.5,3.5,0,0,1,0,.73,1.76,1.76,0,0,1-1.92,1.39,1.79,1.79,0,0,1-1.94-1.39,5.74,5.74,0,0,1,0-.73V5.9a4.22,4.22,0,0,1,.08-.91,1.74,1.74,0,0,1,1.88-1.39A1.72,1.72,0,0,1,127.11,5a4.38,4.38,0,0,1,.06.73V6.8h4.76V6.16s0-.66,0-1.26c-.35-3.61-3.28-4.75-6.62-4.75s-6.21,1.15-6.62,4.75c0,.31-.09.92-.09,1.26v8.09c0,.36,0,.63.07,1.27.31,3.5,3.29,4.76,6.63,4.76s6.33-1.26,6.64-4.76c0-.64.06-.91.06-1.27V9.09Z"/></svg>